<svg id="visual" viewBox="0 0 960 540" width="960" height="540" xmlns="http://www.w3.org/2000/svg" xmlns:xlink="http://www.w3.org/1999/xlink" version="1.1"><rect x="0" y="0" width="960" height="540" fill="#14103c"></rect><defs><linearGradient id="grad1_0" x1="43.8%" y1="0%" x2="100%" y2="100%"><stop offset="14.444444444444446%" stop-color="#3324db" stop-opacity="1"></stop><stop offset="85.55555555555554%" stop-color="#3324db" stop-opacity="1"></stop></linearGradient></defs><defs><linearGradient id="grad1_1" x1="43.8%" y1="0%" x2="100%" y2="100%"><stop offset="14.444444444444446%" stop-color="#3324db" stop-opacity="1"></stop><stop offset="85.55555555555554%" stop-color="#211c88" stop-opacity="1"></stop></linearGradient></defs><defs><linearGradient id="grad1_2" x1="43.8%" y1="0%" x2="100%" y2="100%"><stop offset="14.444444444444446%" stop-color="#14103c" stop-opacity="1"></stop><stop offset="85.55555555555554%" stop-color="#211c88" stop-opacity="1"></stop></linearGradient></defs><defs><linearGradient id="grad2_0" x1="0%" y1="0%" x2="56.3%" y2="100%"><stop offset="14.444444444444446%" stop-color="#3324db" stop-opacity="1"></stop><stop offset="85.55555555555554%" stop-color="#3324db" stop-opacity="1"></stop></linearGradient></defs><defs><linearGradient id="grad2_1" x1="0%" y1="0%" x2="56.3%" y2="100%"><stop offset="14.444444444444446%" stop-color="#211c88" stop-opacity="1"></stop><stop offset="85.55555555555554%" stop-color="#3324db" stop-opacity="1"></stop></linearGradient></defs><defs><linearGradient id="grad2_2" x1="0%" y1="0%" x2="56.3%" y2="100%"><stop offset="14.444444444444446%" stop-color="#211c88" stop-opacity="1"></stop><stop offset="85.55555555555554%" stop-color="#14103c" stop-opacity="1"></stop></linearGradient></defs><g transform="translate(960, 0)"><path d="M0 405C-72.2 395.2 -144.4 385.4 -202.5 350.7C-260.6 316.1 -304.6 256.6 -336 194C-367.4 131.4 -386.2 65.7 -405 0L0 0Z" fill="#1a1761"></path><path d="M0 270C-48.1 263.5 -96.3 256.9 -135 233.8C-173.7 210.7 -203.1 171.1 -224 129.3C-244.9 87.6 -257.5 43.8 -270 0L0 0Z" fill="#2821b1"></path><path d="M0 135C-24.1 131.7 -48.1 128.5 -67.5 116.9C-86.9 105.4 -101.5 85.5 -112 64.7C-122.5 43.8 -128.7 21.9 -135 0L0 0Z" fill="#3324db"></path></g><g transform="translate(0, 540)"><path d="M0 -405C68.9 -391.8 137.8 -378.5 200 -346.4C262.2 -314.3 317.7 -263.4 350.7 -202.5C383.8 -141.6 394.4 -70.8 405 0L0 0Z" fill="#1a1761"></path><path d="M0 -270C45.9 -261.2 91.9 -252.3 133.3 -230.9C174.8 -209.5 211.8 -175.6 233.8 -135C255.9 -94.4 262.9 -47.2 270 0L0 0Z" fill="#2821b1"></path><path d="M0 -135C23 -130.6 45.9 -126.2 66.7 -115.5C87.4 -104.8 105.9 -87.8 116.9 -67.5C127.9 -47.2 131.5 -23.6 135 0L0 0Z" fill="#3324db"></path></g></svg>